<svg width="40" height="41" viewBox="0 0 40 41" fill="none" xmlns="http://www.w3.org/2000/svg">
<path d="M20 20.5C18.9 20.5 17.9583 20.1083 17.175 19.325C16.3917 18.5417 16 17.6 16 16.5C16 15.4 16.3917 14.4583 17.175 13.675C17.9583 12.8917 18.9 12.5 20 12.5C21.1 12.5 22.0417 12.8917 22.825 13.675C23.6083 14.4583 24 15.4 24 16.5C24 17.6 23.6083 18.5417 22.825 19.325C22.0417 20.1083 21.1 20.5 20 20.5ZM12 28.5V25.7C12 25.1333 12.1458 24.6125 12.4375 24.1375C12.7292 23.6625 13.1167 23.3 13.6 23.05C14.6333 22.5333 15.6833 22.1458 16.75 21.8875C17.8167 21.6292 18.9 21.5 20 21.5C21.1 21.5 22.1833 21.6292 23.25 21.8875C24.3167 22.1458 25.3667 22.5333 26.4 23.05C26.8833 23.3 27.2708 23.6625 27.5625 24.1375C27.8542 24.6125 28 25.1333 28 25.7V28.5H12ZM14 26.5H26V25.7C26 25.5167 25.9542 25.35 25.8625 25.2C25.7708 25.05 25.65 24.9333 25.5 24.85C24.6 24.4 23.6917 24.0625 22.775 23.8375C21.8583 23.6125 20.9333 23.5 20 23.5C19.0667 23.5 18.1417 23.6125 17.225 23.8375C16.3083 24.0625 15.4 24.4 14.5 24.85C14.35 24.9333 14.2292 25.05 14.1375 25.2C14.0458 25.35 14 25.5167 14 25.7V26.5ZM20 18.5C20.55 18.5 21.0208 18.3042 21.4125 17.9125C21.8042 17.5208 22 17.05 22 16.5C22 15.95 21.8042 15.4792 21.4125 15.0875C21.0208 14.6958 20.55 14.5 20 14.5C19.45 14.5 18.9792 14.6958 18.5875 15.0875C18.1958 15.4792 18 15.95 18 16.5C18 17.05 18.1958 17.5208 18.5875 17.9125C18.9792 18.3042 19.45 18.5 20 18.5Z" fill="white"/>
</svg>
