<svg width="40" height="40" viewBox="0 0 40 40" fill="none" xmlns="http://www.w3.org/2000/svg">
<path d="M6.02668 33.333C5.2589 33.333 4.61834 33.0763 4.10501 32.563C3.59168 32.0497 3.33445 31.4086 3.33334 30.6397V12.693C3.33334 11.9252 3.59057 11.2847 4.10501 10.7713C4.61945 10.258 5.26001 10.0008 6.02668 9.99967H10.955L14.0383 6.66634H22.6933V8.33301H14.76L11.6867 11.6663H6.02668C5.72668 11.6663 5.48057 11.7625 5.28834 11.9547C5.09612 12.1469 5.00001 12.393 5.00001 12.693V30.6413C5.00001 30.9402 5.09612 31.1858 5.28834 31.378C5.48057 31.5702 5.72668 31.6663 6.02668 31.6663H30.6417C30.9406 31.6663 31.1861 31.5702 31.3783 31.378C31.5706 31.1858 31.6667 30.9397 31.6667 30.6397V17.3063H33.3333V30.6397C33.3333 31.4075 33.0761 32.048 32.5617 32.5613C32.0472 33.0747 31.4072 33.3319 30.6417 33.333H6.02668ZM31.6667 11.6663V8.33301H28.3333V6.66634H31.6667V3.33301H33.3333V6.66634H36.6667V8.33301H33.3333V11.6663H31.6667ZM18.3333 27.883C20.0745 27.883 21.5461 27.2825 22.7483 26.0813C23.9506 24.8802 24.5517 23.4086 24.5517 21.6663C24.5517 19.9241 23.9506 18.4525 22.7483 17.2513C21.5461 16.0502 20.0745 15.4491 18.3333 15.448C16.5922 15.4469 15.1206 16.048 13.9183 17.2513C12.7161 18.4547 12.115 19.9263 12.115 21.6663C12.115 23.4063 12.7161 24.878 13.9183 26.0813C15.1206 27.2847 16.5922 27.8858 18.3333 27.8847M18.3333 26.218C17.0389 26.218 15.9567 25.783 15.0867 24.913C14.2167 24.043 13.7817 22.9608 13.7817 21.6663C13.7817 20.3719 14.2167 19.2897 15.0867 18.4197C15.9567 17.5497 17.0389 17.1147 18.3333 17.1147C19.6278 17.1147 20.71 17.5497 21.58 18.4197C22.45 19.2897 22.885 20.3719 22.885 21.6663C22.885 22.9608 22.45 24.043 21.58 24.913C20.71 25.783 19.6278 26.218 18.3333 26.218Z" fill="white"/>
</svg>
