<svg width="40" height="40" viewBox="0 0 40 40" fill="none" xmlns="http://www.w3.org/2000/svg">
<path d="M9.6 3.33301C7.93798 3.33301 6.34403 3.99324 5.1688 5.16847C3.99357 6.3437 3.33334 7.93765 3.33334 9.59967V30.3997C3.33334 32.0617 3.99357 33.6556 5.1688 34.8309C6.34403 36.0061 7.93798 36.6663 9.6 36.6663H30.4C31.223 36.6663 32.0378 36.5042 32.7982 36.1893C33.5585 35.8744 34.2493 35.4128 34.8312 34.8309C35.4131 34.249 35.8747 33.5581 36.1896 32.7978C36.5046 32.0375 36.6667 31.2226 36.6667 30.3997V9.59967C36.6667 8.77672 36.5046 7.96183 36.1896 7.20152C35.8747 6.44122 35.4131 5.75039 34.8312 5.16847C34.2493 4.58656 33.5585 4.12496 32.7982 3.81003C32.0378 3.4951 31.223 3.33301 30.4 3.33301H9.6ZM12.6917 11.1547H27.3083C27.9903 11.1549 28.6656 11.2894 29.2956 11.5506C29.9256 11.8118 30.498 12.1945 30.9801 12.6769C31.4622 13.1593 31.8445 13.732 32.1053 14.3621C32.3661 14.9923 32.5002 15.6677 32.5 16.3497V23.653C32.5 25.0301 31.9531 26.3508 30.9795 27.3247C30.0059 28.2985 28.6854 28.8459 27.3083 28.8463H12.6917C12.0095 28.8461 11.3341 28.7115 10.704 28.4502C10.0739 28.1889 9.50144 27.8061 9.01933 27.3235C8.53721 26.8409 8.15489 26.2681 7.89421 25.6377C7.63352 25.0074 7.49956 24.3318 7.5 23.6497V16.3497C7.5 14.9726 8.04693 13.6519 9.0205 12.678C9.99408 11.7041 11.3146 11.1551 12.6917 11.1547ZM16.825 16.3713C16.7553 16.3751 16.6896 16.4053 16.6413 16.4558C16.593 16.5062 16.5657 16.5732 16.565 16.643V23.368C16.5644 23.4148 16.5758 23.4611 16.5982 23.5022C16.6206 23.5434 16.6532 23.5781 16.6928 23.603C16.7325 23.6279 16.7779 23.6422 16.8247 23.6446C16.8715 23.6469 16.9181 23.6372 16.96 23.6163L23.795 20.3547C23.8409 20.3324 23.8798 20.2979 23.9072 20.2548C23.9345 20.2117 23.9494 20.1619 23.9501 20.1109C23.9508 20.0599 23.9373 20.0097 23.9111 19.9659C23.8849 19.9221 23.847 19.8865 23.8017 19.863L16.9667 16.3997C16.9236 16.3771 16.8752 16.3667 16.8267 16.3697L16.825 16.3713Z" fill="black"/>
</svg>
