<svg width="175" height="41" viewBox="0 0 175 41" fill="none" xmlns="http://www.w3.org/2000/svg">
<path d="M20 20.5C18.9 20.5 17.9583 20.1083 17.175 19.325C16.3917 18.5417 16 17.6 16 16.5C16 15.4 16.3917 14.4583 17.175 13.675C17.9583 12.8917 18.9 12.5 20 12.5C21.1 12.5 22.0417 12.8917 22.825 13.675C23.6083 14.4583 24 15.4 24 16.5C24 17.6 23.6083 18.5417 22.825 19.325C22.0417 20.1083 21.1 20.5 20 20.5ZM12 28.5V25.7C12 25.1333 12.1458 24.6125 12.4375 24.1375C12.7292 23.6625 13.1167 23.3 13.6 23.05C14.6333 22.5333 15.6833 22.1458 16.75 21.8875C17.8167 21.6292 18.9 21.5 20 21.5C21.1 21.5 22.1833 21.6292 23.25 21.8875C24.3167 22.1458 25.3667 22.5333 26.4 23.05C26.8833 23.3 27.2708 23.6625 27.5625 24.1375C27.8542 24.6125 28 25.1333 28 25.7V28.5H12ZM14 26.5H26V25.7C26 25.5167 25.9542 25.35 25.8625 25.2C25.7708 25.05 25.65 24.9333 25.5 24.85C24.6 24.4 23.6917 24.0625 22.775 23.8375C21.8583 23.6125 20.9333 23.5 20 23.5C19.0667 23.5 18.1417 23.6125 17.225 23.8375C16.3083 24.0625 15.4 24.4 14.5 24.85C14.35 24.9333 14.2292 25.05 14.1375 25.2C14.0458 25.35 14 25.5167 14 25.7V26.5ZM20 18.5C20.55 18.5 21.0208 18.3042 21.4125 17.9125C21.8042 17.5208 22 17.05 22 16.5C22 15.95 21.8042 15.4792 21.4125 15.0875C21.0208 14.6958 20.55 14.5 20 14.5C19.45 14.5 18.9792 14.6958 18.5875 15.0875C18.1958 15.4792 18 15.95 18 16.5C18 17.05 18.1958 17.5208 18.5875 17.9125C18.9792 18.3042 19.45 18.5 20 18.5Z" fill="white"/>
<path d="M62.2266 30.5V13.6953H67.0312V20.7031L75.5508 13.6953H82.0547L72.1875 21.5469L82.3711 30.5H75.457L67.0312 23.1289V30.5H62.2266ZM100.16 30.5L98.5781 27.3828H89.332L87.75 30.5H82.6172L91.5703 13.6953H96.5391L105.492 30.5H100.16ZM91.1836 23.7617H96.7266L93.9727 18.3125L91.1836 23.7617ZM107.719 30.5V13.6953H119.168C121.23 13.6953 122.875 14.25 124.102 15.3594C125.328 16.4688 125.941 17.9648 125.941 19.8477C125.941 21.6992 125.312 23.1719 124.055 24.2656C122.805 25.3516 121.113 25.8945 118.98 25.8945H112.594V30.5H107.719ZM118.207 17.4688H112.594V22.1211H118.207C120.051 22.1211 120.973 21.3711 120.973 19.8711C120.973 18.2695 120.051 17.4688 118.207 17.4688ZM127.043 34.5078V26.6562H128.648C129.195 26.2031 129.613 25.6055 129.902 24.8633C130.191 24.1211 130.41 23.0703 130.559 21.7109C130.715 20.3516 130.82 18.4492 130.875 16.0039L130.922 13.6953H147.633V26.6562H149.859V34.5078H145.207V30.5H131.672V34.5078H127.043ZM134.695 24.5234C134.406 25.3281 134.023 26.0391 133.547 26.6562H142.828V17.5391H135.504C135.449 19.3516 135.367 20.7734 135.258 21.8047C135.156 22.8281 134.969 23.7344 134.695 24.5234ZM162.398 30.7695C158.977 30.7695 156.293 30 154.348 28.4609C152.402 26.9141 151.43 24.8008 151.43 22.1211C151.43 19.418 152.398 17.2969 154.336 15.7578C156.281 14.2109 158.969 13.4375 162.398 13.4375C165.812 13.4375 168.488 14.2109 170.426 15.7578C172.371 17.2969 173.344 19.418 173.344 22.1211C173.344 24.793 172.371 26.9023 170.426 28.4492C168.488 29.9961 165.812 30.7695 162.398 30.7695ZM162.398 26.9258C166.367 26.9258 168.352 25.3242 168.352 22.1211C168.352 18.8945 166.367 17.2812 162.398 17.2812C158.414 17.2812 156.422 18.8945 156.422 22.1211C156.422 25.3242 158.414 26.9258 162.398 26.9258Z" fill="white"/>
</svg>
