<svg width="20" height="20" viewBox="0 0 20 20" fill="none" xmlns="http://www.w3.org/2000/svg">
<g clip-path="url(#clip0_375_1109)">
<path d="M19.1739 9.71058C19.1739 8.93171 19.112 8.36334 18.9782 7.77393H10.2724V11.2894H15.3825C15.2795 12.163 14.7232 13.4787 13.4868 14.3628L13.4695 14.4805L16.2221 16.659L16.4128 16.6784C18.1642 15.0259 19.1739 12.5945 19.1739 9.71058Z" fill="black"/>
<path d="M10.2724 18.9729C12.7759 18.9729 14.8776 18.1308 16.4128 16.6783L13.4868 14.3627C12.7038 14.9205 11.6529 15.31 10.2724 15.31C7.82038 15.31 5.73926 13.6575 4.99739 11.3735L4.88865 11.383L2.02646 13.6459L1.98903 13.7522C3.51381 16.8467 6.64583 18.9729 10.2724 18.9729Z" fill="black"/>
<path d="M4.9974 11.3736C4.80165 10.7842 4.68836 10.1526 4.68836 9.50004C4.68836 8.84742 4.80165 8.21592 4.9871 7.62651L4.98191 7.50098L2.08385 5.20166L1.98903 5.24774C1.3606 6.53185 1 7.97386 1 9.50004C1 11.0262 1.3606 12.4682 1.98903 13.7523L4.9974 11.3736Z" fill="black"/>
<path d="M10.2724 3.69016C12.0135 3.69016 13.188 4.45851 13.8577 5.1006L16.4746 2.49029C14.8674 0.964108 12.7759 0.0273438 10.2724 0.0273438C6.64583 0.0273438 3.51381 2.15346 1.98903 5.2479L4.98709 7.62667C5.73926 5.34267 7.82038 3.69016 10.2724 3.69016Z" fill="black"/>
</g>
<defs>
<clipPath id="clip0_375_1109">
<rect x="1" width="18.1739" height="19" rx="9.08696" fill="white"/>
</clipPath>
</defs>
</svg>
