<svg width="40" height="41" viewBox="0 0 40 41" fill="none" xmlns="http://www.w3.org/2000/svg">
<path d="M12 27.5V25.5H14V18.5C14 17.1167 14.4167 15.8875 15.25 14.8125C16.0833 13.7375 17.1667 13.0333 18.5 12.7V12C18.5 11.5833 18.6458 11.2292 18.9375 10.9375C19.2292 10.6458 19.5833 10.5 20 10.5C20.4167 10.5 20.7708 10.6458 21.0625 10.9375C21.3542 11.2292 21.5 11.5833 21.5 12V12.7C22.8333 13.0333 23.9167 13.7375 24.75 14.8125C25.5833 15.8875 26 17.1167 26 18.5V25.5H28V27.5H12ZM20 30.5C19.45 30.5 18.9792 30.3042 18.5875 29.9125C18.1958 29.5208 18 29.05 18 28.5H22C22 29.05 21.8042 29.5208 21.4125 29.9125C21.0208 30.3042 20.55 30.5 20 30.5ZM16 25.5H24V18.5C24 17.4 23.6083 16.4583 22.825 15.675C22.0417 14.8917 21.1 14.5 20 14.5C18.9 14.5 17.9583 14.8917 17.175 15.675C16.3917 16.4583 16 17.4 16 18.5V25.5Z" fill="white"/>
</svg>
