<svg width="40" height="40" viewBox="0 0 40 40" fill="none" xmlns="http://www.w3.org/2000/svg">
<path d="M33 10.1427C33 7.93356 31.2091 6.1427 29 6.14269L8.59202 6.1426C6.38287 6.14259 4.59201 7.93345 4.59201 10.1426V32.3468C4.59201 34.556 6.38287 36.3468 8.59201 36.3468H29C31.2091 36.3468 33 34.556 33 32.3468V10.1427ZM25.29 28.5871C25.2278 28.7428 25.133 28.8834 25.012 28.9994C24.8909 29.1154 24.7465 29.2042 24.5883 29.2598C24.4301 29.3154 24.2618 29.3364 24.0948 29.3216C23.9278 29.3068 23.7659 29.2563 23.62 29.1737L19.095 25.6571L16.1917 28.3371C16.1243 28.3868 16.0455 28.4189 15.9625 28.4302C15.8795 28.4416 15.7949 28.4319 15.7167 28.4021L16.2733 23.4204L16.29 23.4354L16.3017 23.3371C16.3017 23.3371 24.4433 15.9237 24.775 15.6087C25.1117 15.2937 25 15.2254 25 15.2254C25.02 14.8421 24.3983 15.2254 24.3983 15.2254L13.61 22.1654L9.11833 20.6354C9.11833 20.6354 8.42833 20.3887 8.36333 19.8437C8.295 19.3037 9.14 19.0104 9.14 19.0104L27.0017 11.9137C27.0017 11.9137 28.47 11.2604 28.47 12.3437L25.29 28.5871Z" fill="black"/>
</svg>
